<mxfile host="app.diagrams.net" agent="Mozilla/5.0 (X11; Linux x86_64) AppleWebKit/537.36 (KHTML, like Gecko) Chrome/130.0.0.0 Safari/537.36" version="24.8.0">
  <diagram name="PÃ¡gina-1" id="dL5t2cOvgwmcysUcWyrV">
    <mxGraphModel dx="989" dy="488" grid="1" gridSize="10" guides="1" tooltips="1" connect="1" arrows="1" fold="1" page="1" pageScale="1" pageWidth="827" pageHeight="1169" math="0" shadow="0">
      <root>
        <mxCell id="0" />
        <mxCell id="1" parent="0" />
        <mxCell id="H8zz_mP087igv8R4QjpF-24" value="" style="rounded=0;whiteSpace=wrap;html=1;" parent="1" vertex="1">
          <mxGeometry x="90" y="240" width="680" height="270" as="geometry" />
        </mxCell>
        <mxCell id="H8zz_mP087igv8R4QjpF-3" value="&lt;font style=&quot;font-size: 11px;&quot;&gt;Google Cloud Platform&lt;/font&gt;" style="text;html=1;align=center;verticalAlign=middle;whiteSpace=wrap;rounded=0;" parent="1" vertex="1">
          <mxGeometry x="644" y="490" width="120" height="20" as="geometry" />
        </mxCell>
        <mxCell id="H8zz_mP087igv8R4QjpF-4" value="Architecture: Microservices-based Application" style="text;html=1;align=center;verticalAlign=middle;whiteSpace=wrap;rounded=0;fontSize=15;fontStyle=2" parent="1" vertex="1">
          <mxGeometry x="223" y="110" width="321" height="30" as="geometry" />
        </mxCell>
        <mxCell id="H8zz_mP087igv8R4QjpF-5" value="Browser" style="rounded=0;whiteSpace=wrap;html=1;" parent="1" vertex="1">
          <mxGeometry x="10" y="330" width="50" height="40" as="geometry" />
        </mxCell>
        <mxCell id="H8zz_mP087igv8R4QjpF-6" value="Web Server 1" style="rounded=0;whiteSpace=wrap;html=1;" parent="1" vertex="1">
          <mxGeometry x="253" y="290" width="77" height="40" as="geometry" />
        </mxCell>
        <mxCell id="H8zz_mP087igv8R4QjpF-7" value="Insurance MS" style="rounded=0;whiteSpace=wrap;html=1;" parent="1" vertex="1">
          <mxGeometry x="520" y="260" width="93" height="30" as="geometry" />
        </mxCell>
        <mxCell id="H8zz_mP087igv8R4QjpF-8" value="Loan MS" style="rounded=0;whiteSpace=wrap;html=1;" parent="1" vertex="1">
          <mxGeometry x="520" y="335" width="93" height="30" as="geometry" />
        </mxCell>
        <mxCell id="H8zz_mP087igv8R4QjpF-9" value="Transaction MS" style="rounded=0;whiteSpace=wrap;html=1;" parent="1" vertex="1">
          <mxGeometry x="520" y="400" width="93" height="40" as="geometry" />
        </mxCell>
        <mxCell id="H8zz_mP087igv8R4QjpF-20" value="Monitoring&lt;div&gt;(Prometheus + Grafana)&lt;/div&gt;" style="rounded=0;whiteSpace=wrap;html=1;" parent="1" vertex="1">
          <mxGeometry x="498" y="450" width="137" height="40" as="geometry" />
        </mxCell>
        <mxCell id="H8zz_mP087igv8R4QjpF-27" value="BANK46" style="text;html=1;align=center;verticalAlign=middle;whiteSpace=wrap;rounded=0;fontSize=18;fontStyle=1" parent="1" vertex="1">
          <mxGeometry x="253" y="40" width="321" height="30" as="geometry" />
        </mxCell>
        <mxCell id="ONxRNd3BQYtyQSOYtxAn-1" value="LoadBalancer" style="rounded=0;whiteSpace=wrap;html=1;" parent="1" vertex="1">
          <mxGeometry x="100" y="330" width="80" height="40" as="geometry" />
        </mxCell>
        <mxCell id="ONxRNd3BQYtyQSOYtxAn-3" value="" style="endArrow=classic;startArrow=classic;html=1;rounded=0;entryX=1;entryY=0.5;entryDx=0;entryDy=0;exitX=0;exitY=0.5;exitDx=0;exitDy=0;" parent="1" source="ONxRNd3BQYtyQSOYtxAn-1" target="H8zz_mP087igv8R4QjpF-5" edge="1">
          <mxGeometry width="50" height="50" relative="1" as="geometry">
            <mxPoint x="80" y="400" as="sourcePoint" />
            <mxPoint x="130" y="350" as="targetPoint" />
          </mxGeometry>
        </mxCell>
        <mxCell id="ONxRNd3BQYtyQSOYtxAn-4" value="Web Server 2" style="rounded=0;whiteSpace=wrap;html=1;" parent="1" vertex="1">
          <mxGeometry x="253" y="370" width="77" height="40" as="geometry" />
        </mxCell>
        <mxCell id="ONxRNd3BQYtyQSOYtxAn-5" value="" style="endArrow=classic;startArrow=classic;html=1;rounded=0;entryX=1;entryY=0.5;entryDx=0;entryDy=0;exitX=0;exitY=0.5;exitDx=0;exitDy=0;" parent="1" source="H8zz_mP087igv8R4QjpF-6" target="ONxRNd3BQYtyQSOYtxAn-1" edge="1">
          <mxGeometry width="50" height="50" relative="1" as="geometry">
            <mxPoint x="260" y="400" as="sourcePoint" />
            <mxPoint x="310" y="350" as="targetPoint" />
          </mxGeometry>
        </mxCell>
        <mxCell id="ONxRNd3BQYtyQSOYtxAn-6" value="" style="endArrow=classic;startArrow=classic;html=1;rounded=0;entryX=1;entryY=0.5;entryDx=0;entryDy=0;exitX=0;exitY=0.5;exitDx=0;exitDy=0;" parent="1" source="ONxRNd3BQYtyQSOYtxAn-4" target="ONxRNd3BQYtyQSOYtxAn-1" edge="1">
          <mxGeometry width="50" height="50" relative="1" as="geometry">
            <mxPoint x="260" y="400" as="sourcePoint" />
            <mxPoint x="310" y="350" as="targetPoint" />
          </mxGeometry>
        </mxCell>
        <mxCell id="ONxRNd3BQYtyQSOYtxAn-7" value="" style="endArrow=classic;startArrow=classic;html=1;rounded=0;entryX=1;entryY=0.5;entryDx=0;entryDy=0;exitX=0;exitY=0.5;exitDx=0;exitDy=0;exitPerimeter=0;" parent="1" source="ONxRNd3BQYtyQSOYtxAn-8" target="H8zz_mP087igv8R4QjpF-7" edge="1">
          <mxGeometry width="50" height="50" relative="1" as="geometry">
            <mxPoint x="350" y="400" as="sourcePoint" />
            <mxPoint x="400" y="350" as="targetPoint" />
          </mxGeometry>
        </mxCell>
        <mxCell id="ONxRNd3BQYtyQSOYtxAn-8" value="MongoDB" style="shape=cylinder3;whiteSpace=wrap;html=1;boundedLbl=1;backgroundOutline=1;size=15;" parent="1" vertex="1">
          <mxGeometry x="660" y="310" width="60" height="80" as="geometry" />
        </mxCell>
        <mxCell id="ONxRNd3BQYtyQSOYtxAn-9" value="" style="endArrow=classic;startArrow=classic;html=1;rounded=0;entryX=1;entryY=0.5;entryDx=0;entryDy=0;exitX=0;exitY=0.5;exitDx=0;exitDy=0;exitPerimeter=0;" parent="1" source="ONxRNd3BQYtyQSOYtxAn-8" target="H8zz_mP087igv8R4QjpF-8" edge="1">
          <mxGeometry width="50" height="50" relative="1" as="geometry">
            <mxPoint x="670" y="360" as="sourcePoint" />
            <mxPoint x="563" y="270" as="targetPoint" />
          </mxGeometry>
        </mxCell>
        <mxCell id="ONxRNd3BQYtyQSOYtxAn-10" value="" style="endArrow=classic;startArrow=classic;html=1;rounded=0;entryX=1;entryY=0.5;entryDx=0;entryDy=0;exitX=0;exitY=0.5;exitDx=0;exitDy=0;exitPerimeter=0;" parent="1" source="ONxRNd3BQYtyQSOYtxAn-8" target="H8zz_mP087igv8R4QjpF-9" edge="1">
          <mxGeometry width="50" height="50" relative="1" as="geometry">
            <mxPoint x="669" y="365" as="sourcePoint" />
            <mxPoint x="563" y="360" as="targetPoint" />
          </mxGeometry>
        </mxCell>
        <mxCell id="ONxRNd3BQYtyQSOYtxAn-12" value="" style="endArrow=classic;startArrow=classic;html=1;rounded=0;exitX=1;exitY=0.5;exitDx=0;exitDy=0;entryX=0;entryY=0.5;entryDx=0;entryDy=0;" parent="1" source="ONxRNd3BQYtyQSOYtxAn-4" target="W4jAXadvuL3NxW4btd8l-1" edge="1">
          <mxGeometry width="50" height="50" relative="1" as="geometry">
            <mxPoint x="350" y="440" as="sourcePoint" />
            <mxPoint x="377" y="350" as="targetPoint" />
          </mxGeometry>
        </mxCell>
        <mxCell id="ONxRNd3BQYtyQSOYtxAn-13" value="" style="endArrow=classic;startArrow=classic;html=1;rounded=0;exitX=1;exitY=0.5;exitDx=0;exitDy=0;" parent="1" source="H8zz_mP087igv8R4QjpF-6" edge="1">
          <mxGeometry width="50" height="50" relative="1" as="geometry">
            <mxPoint x="340" y="400" as="sourcePoint" />
            <mxPoint x="390" y="350" as="targetPoint" />
          </mxGeometry>
        </mxCell>
        <mxCell id="ONxRNd3BQYtyQSOYtxAn-14" value="" style="endArrow=classic;startArrow=classic;html=1;rounded=0;exitX=0;exitY=0.5;exitDx=0;exitDy=0;" parent="1" source="H8zz_mP087igv8R4QjpF-7" edge="1">
          <mxGeometry width="50" height="50" relative="1" as="geometry">
            <mxPoint x="340" y="320" as="sourcePoint" />
            <mxPoint x="430" y="350" as="targetPoint" />
          </mxGeometry>
        </mxCell>
        <mxCell id="ONxRNd3BQYtyQSOYtxAn-15" value="" style="endArrow=classic;startArrow=classic;html=1;rounded=0;exitX=0;exitY=0.5;exitDx=0;exitDy=0;entryX=1;entryY=0.5;entryDx=0;entryDy=0;" parent="1" source="H8zz_mP087igv8R4QjpF-8" target="W4jAXadvuL3NxW4btd8l-1" edge="1">
          <mxGeometry width="50" height="50" relative="1" as="geometry">
            <mxPoint x="530" y="280" as="sourcePoint" />
            <mxPoint x="457" y="350" as="targetPoint" />
          </mxGeometry>
        </mxCell>
        <mxCell id="ONxRNd3BQYtyQSOYtxAn-16" value="" style="endArrow=classic;startArrow=classic;html=1;rounded=0;exitX=0;exitY=0.5;exitDx=0;exitDy=0;entryX=1;entryY=0.5;entryDx=0;entryDy=0;" parent="1" source="H8zz_mP087igv8R4QjpF-9" target="W4jAXadvuL3NxW4btd8l-1" edge="1">
          <mxGeometry width="50" height="50" relative="1" as="geometry">
            <mxPoint x="530" y="360" as="sourcePoint" />
            <mxPoint x="457" y="350" as="targetPoint" />
          </mxGeometry>
        </mxCell>
        <mxCell id="ONxRNd3BQYtyQSOYtxAn-20" value="Management Machine" style="rounded=0;whiteSpace=wrap;html=1;" parent="1" vertex="1">
          <mxGeometry x="90" y="200" width="680" height="30" as="geometry" />
        </mxCell>
        <mxCell id="W4jAXadvuL3NxW4btd8l-1" value="" style="rhombus;whiteSpace=wrap;html=1;" vertex="1" parent="1">
          <mxGeometry x="398.5" y="340" width="30" height="20" as="geometry" />
        </mxCell>
        <mxCell id="W4jAXadvuL3NxW4btd8l-3" value="" style="swimlane;startSize=0;" vertex="1" parent="1">
          <mxGeometry x="480" y="250" width="170" height="250" as="geometry" />
        </mxCell>
      </root>
    </mxGraphModel>
  </diagram>
</mxfile>
